<?xml version="1.0" encoding="UTF-8"?>
<svg id="Layer_1" xmlns="http://www.w3.org/2000/svg" viewBox="0 0 425.2 425.2">
  <defs>
    <style>
      .cls-1 {
        fill: #231f20;
      }
    </style>
  </defs>
  <path class="cls-1" d="M28.11,201.41l-5.03-3.8c-11.03-8.35-12.54-20.33-3.36-26.76l131.04-91.76c9.18-6.43,25.57-4.87,36.6,3.48l5.03,3.8c11.03,8.35,12.54,20.33,3.36,26.76l-131.04,91.76c-9.18,6.43-25.57,4.87-36.6-3.48Z"/>
  <path class="cls-1" d="M22.42,226.68l3.51-4.81c7.71-10.56,22.09-14.03,32.13-7.74l143.29,89.7c10.04,6.28,11.93,19.94,4.22,30.5l-3.51,4.81c-7.71,10.56-22.09,14.03-32.13,7.74L26.65,257.18c-10.04-6.28-11.93-19.94-4.22-30.5Z"/>
  <path class="cls-1" d="M276.98,344.05l-9.76-7.52c-10.31-7.95-11.81-19.51-3.36-25.82l93.37-69.71c8.46-6.31,23.67-4.99,33.98,2.96l9.76,7.52c10.31,7.95,11.81,19.51,3.36,25.82l-93.37,69.71c-8.46,6.31-23.67,4.99-33.98-2.96Z"/>
  <path class="cls-1" d="M285.79,159.7l-9.34-7.29c-10.11-7.89-12.79-18.31-5.98-23.29l70.37-51.4c6.81-4.98,20.53-2.62,30.65,5.27l9.34,7.29c10.11,7.89,12.79,18.31,5.98,23.29l-70.37,51.4c-6.81,4.98-20.53,2.62-30.65-5.27Z"/>
  <path class="cls-1" d="M230.69,164.3l8.6-8.42c9.08-8.89,22.42-11.33,29.79-5.43l81.38,65.05c7.37,5.89,5.98,17.88-3.1,26.77l-8.6,8.42c-9.08,8.89-22.42,11.33-29.79,5.43l-81.38-65.05c-7.37-5.89-5.98-17.88,3.1-26.77Z"/>
</svg>