<?xml version="1.0" encoding="UTF-8"?>
<svg id="Layer_1" xmlns="http://www.w3.org/2000/svg" viewBox="0 0 425.2 425.2">
  <defs>
    <style>
      .cls-1, .cls-2, .cls-3 {
        fill: #231f20;
      }

      .cls-2 {
        stroke-width: 1.02px;
      }

      .cls-2, .cls-3 {
        stroke: #231f20;
        stroke-miterlimit: 10;
      }

      .cls-4 {
        fill: none;
      }

      .cls-3 {
        stroke-width: 1.01px;
      }
    </style>
  </defs>
  <path class="cls-1" d="M114.72,106.8l-2.53-1.86c-5.55-4.09-6.3-9.95-1.69-13.1l65.88-44.9c4.62-3.15,12.85-2.38,18.4,1.7l2.53,1.86c5.55,4.09,6.3,9.95,1.69,13.1l-65.88,44.9c-4.62,3.15-12.85,2.38-18.4-1.7Z"/>
  <path class="cls-1" d="M111.86,119.16l1.76-2.35c3.87-5.17,11.11-6.86,16.15-3.79l72.03,43.9c5.05,3.08,6,9.76,2.12,14.93l-1.76,2.35c-3.87,5.17-11.11,6.86-16.15,3.79l-72.03-43.9c-5.05-3.08-6-9.76-2.12-14.93Z"/>
  <path class="cls-1" d="M239.83,176.6l-4.91-3.68c-5.18-3.89-5.94-9.55-1.69-12.63l46.94-34.11c4.25-3.09,11.9-2.44,17.08,1.45l4.91,3.68c5.18,3.89,5.94,9.55,1.69,12.63l-46.94,34.11c-4.25,3.09-11.9,2.44-17.08-1.45Z"/>
  <path class="cls-1" d="M244.26,86.39l-4.7-3.57c-5.08-3.86-6.43-8.96-3.01-11.4l35.37-25.15c3.42-2.43,10.32-1.28,15.41,2.58l4.7,3.57c5.08,3.86,6.43,8.96,3.01,11.4l-35.37,25.15c-3.42,2.43-10.32,1.28-15.41-2.58Z"/>
  <path class="cls-1" d="M216.56,88.64l4.32-4.12c4.57-4.35,11.27-5.54,14.97-2.66l40.91,31.83c3.71,2.88,3.01,8.75-1.56,13.1l-4.32,4.12c-4.57,4.35-11.27,5.54-14.97,2.66l-40.91-31.83c-3.71-2.88-3.01-8.75,1.56-13.1Z"/>
  <path class="cls-1" d="M90.04,285.36c-6.96,7.52-17.09,12.07-28.27,11.51-18.61-.92-33.63-16.31-34.15-34.93-.56-20.35,15.76-37.02,35.99-37.02,8.99,0,17.2,3.29,23.51,8.74,3.49,3.01,9.12.86,9.18-3.75,0-.24,0-.47-.03-.71-.34-4.69-5.18-9.11-9.09-12.22-7.26-5.69-16.13-9.26-25.33-9.93-25.16-2.17-47.09,18.1-51.65,42.14-8.08,35.86,22.52,73.06,58.31,64.6,8.63-1.96,16.59-6.41,23.08-12.8,3.22-3.31,6.89-7.15,7.4-11.92,0-.04,0-.07,0-.11.3-4.77-5.7-7.11-8.95-3.6Z"/>
  <g>
    <path class="cls-4" d="M187.23,280.59v27.19c-8.16,4.06-18.23,6.45-29.11,6.45s-20.94-2.39-29.11-6.45v-27.19c0,10.93,13.04,19.79,29.11,19.79s29.11-8.86,29.11-19.79Z"/>
    <path class="cls-4" d="M207.61,280.59c0,11.19-8.02,21.09-20.38,27.19v-27.19c0,10.93-13.04,19.79-29.11,19.79s-29.11-8.86-29.11-19.79v27.19c-10.46-5.15-17.81-13.04-19.83-22.12-.37-1.65-.56-3.35-.56-5.08s.19-3.42.56-5.08c1.23-5.54,4.46-10.65,9.17-14.94,3-2.75,6.59-5.18,10.66-7.17,1.51-.76,3.07-1.44,4.71-2.06,7.19-2.79,15.52-4.38,24.41-4.38s17.2,1.59,24.41,4.38c1.63.62,3.2,1.31,4.71,2.06,4.06,2.01,7.65,4.42,10.65,7.17,6.12,5.58,9.73,12.52,9.73,20.02Z"/>
    <path class="cls-4" d="M187.23,280.59c0,10.93-13.04,19.79-29.11,19.79s-29.11-8.86-29.11-19.79c0-3.98,1.73-7.68,4.71-10.78,5.19-5.41,14.19-9,24.41-9s19.22,3.59,24.41,9c2.98,3.1,4.71,6.8,4.71,10.78Z"/>
    <path class="cls-1" d="M158.11,206.91c-27.34,0-49.5,15.06-49.5,33.64s22.16,33.64,49.5,33.64,49.5-15.06,49.5-33.64-22.16-33.64-49.5-33.64ZM158.11,260.34c-16.08,0-29.11-8.86-29.11-19.79s13.03-19.79,29.11-19.79,29.11,8.86,29.11,19.79-13.03,19.79-29.11,19.79Z"/>
    <path class="cls-1" d="M207.61,241.24v67.25c0,3.17-2.42,5.74-5.41,5.74h-9.57c-2.99,0-5.41-2.57-5.41-5.74v-67.25c0-3.17,2.42-5.74,5.41-5.74h9.57c2.99,0,5.41,2.57,5.41,5.74Z"/>
    <path class="cls-1" d="M128.43,243.02v65.05c0,3.78-2.89,6.84-6.45,6.84h-6.94c-3.56,0-6.45-3.06-6.45-6.84v-65.05c0-3.78,2.89-6.84,6.45-6.84h6.94c3.56,0,6.45,3.06,6.45,6.84Z"/>
  </g>
  <path class="cls-3" d="M414.61,213.84v94.14c0,3.83-2.59,6.93-5.78,6.93h-7.63c-3.19,0-5.78-3.1-5.78-6.93v-39.22c0-3.04-.51-5.96-1.44-8.69-1.18-3.46-4.4-5.22-7.33-3.94-5.71,2.48-12.01,3.85-18.64,3.85s-12.93-1.37-18.63-3.85c-2.93-1.28-6.15.48-7.33,3.94-.93,2.73-1.44,5.65-1.44,8.7v39.22c0,3.83-2.59,6.93-5.78,6.93h-7.11c-3.19,0-5.78-3.1-5.78-6.93v-94.14c0-3.83,2.59-6.93,5.78-6.93h7.11c3.19,0,5.78,3.1,5.78,6.93h0c0,5.48,1.63,10.55,4.43,14.81,4.89,7.43,13.35,12.33,22.97,12.33s18.09-4.92,22.97-12.35c2.8-4.25,4.43-9.33,4.43-14.79h0c0-3.83,2.59-6.93,5.78-6.93h7.63c3.14,0,5.76,3.01,5.78,6.77,0,.05,0,.11,0,.16Z"/>
  <path class="cls-2" d="M247.07,266.8c2.28.33,4.6.36,6.89.09,4.57-.54,12.57-1.31,15.73-.56,5.72,1.36,10.57,3.96,13.83,7.31,2.8,2.88,4.42,6.32,4.42,10.02,0,10.15-12.26,18.39-27.39,18.39-11.74,0-21.75-4.95-25.65-11.92-1.89-3.38-5.93-4.71-9.4-3.25l-1.44.61c-4.67,1.97-6.39,8.1-3.31,12.26,7.12,9.58,21.61,15.17,39.8,15.17,23.34,0,42.68-11.52,46.05-26.56.01-.01.01-.02.01-.03v-7.39c0-1.61-.27-3.21-.82-4.74-1.49-4.09-4.18-7.86-7.82-11.13-2.82-2.56-6.2-4.81-10.03-6.67-1.41-.69-2.89-1.33-4.42-1.91-.84-.32-1.72-.69-2.64-1.08-6.11-2.62-13.95-2.25-21.37-1.23-6.88.94-13.98-.94-18.92-5.47-.29-.26-.57-.53-.83-.81-2.8-2.88-4.42-6.32-4.42-10.02,0-10.15,12.26-18.39,27.39-18.39,11.74,0,21.75,4.95,25.65,11.92,1.89,3.38,5.93,4.71,9.4,3.25l1.44-.61c4.67-1.97,6.39-8.1,3.31-12.26-7.12-9.58-21.61-15.17-39.8-15.17-23.34,0-42.68,11.52-46.05,26.56-.01.01-.01.02-.01.03v7.39c0,1.61.27,3.21.82,4.74,1.49,4.09,4.18,7.86,7.82,11.13,2.82,2.56,6.2,4.81,10.03,6.67,1.41.69,2.89,1.33,4.42,1.91h.03c1.94.75,3.96,1.27,6.03,1.57l1.26.18Z"/>
</svg>