<?xml version="1.0" encoding="UTF-8"?>
<svg id="Layer_1" xmlns="http://www.w3.org/2000/svg" viewBox="0 0 425.2 117">
  <defs>
    <style>
      .cls-1, .cls-2, .cls-3 {
        fill: #231f20;
      }

      .cls-4 {
        fill: none;
      }

      .cls-2 {
        stroke-width: .73px;
      }

      .cls-2, .cls-3 {
        stroke: #231f20;
        stroke-miterlimit: 10;
      }

      .cls-3 {
        stroke-width: .72px;
      }
    </style>
  </defs>
  <path class="cls-1" d="M18.66,55.08l-1.48-1.12c-3.26-2.45-3.7-5.97-.99-7.86l38.71-26.94c2.71-1.89,7.55-1.43,10.81,1.02l1.48,1.12c3.26,2.45,3.7,5.97.99,7.86l-38.71,26.94c-2.71,1.89-7.55,1.43-10.81-1.02Z"/>
  <path class="cls-1" d="M16.98,62.5l1.04-1.41c2.28-3.1,6.53-4.12,9.49-2.27l42.33,26.34c2.97,1.85,3.52,5.85,1.25,8.96l-1.04,1.41c-2.28,3.1-6.53,4.12-9.49,2.27l-42.33-26.34c-2.97-1.85-3.52-5.85-1.25-8.96Z"/>
  <path class="cls-1" d="M92.17,96.96l-2.88-2.21c-3.05-2.33-3.49-5.73-.99-7.58l27.58-20.47c2.5-1.85,6.99-1.46,10.04.87l2.88,2.21c3.05,2.33,3.49,5.73.99,7.58l-27.58,20.47c-2.5,1.85-6.99,1.46-10.04-.87Z"/>
  <path class="cls-1" d="M94.78,42.83l-2.76-2.14c-2.99-2.32-3.78-5.38-1.77-6.84l20.78-15.09c2.01-1.46,6.06-.77,9.05,1.55l2.76,2.14c2.99,2.32,3.78,5.38,1.77,6.84l-20.78,15.09c-2.01,1.46-6.06.77-9.05-1.55Z"/>
  <path class="cls-1" d="M78.5,44.18l2.54-2.47c2.68-2.61,6.62-3.33,8.8-1.6l24.04,19.1c2.18,1.73,1.77,5.25-.91,7.86l-2.54,2.47c-2.68,2.61-6.62,3.33-8.8,1.6l-24.04-19.1c-2.18-1.73-1.77-5.25.91-7.86Z"/>
  <path class="cls-1" d="M193.53,76.38c-4.65,5.74-11.42,9.21-18.89,8.78-12.43-.71-22.47-12.44-22.82-26.65-.38-15.53,10.53-28.25,24.05-28.25,6,0,11.49,2.51,15.71,6.67,2.33,2.3,6.1.65,6.13-2.86,0-.18,0-.36-.02-.54-.23-3.58-3.46-6.95-6.08-9.32-4.85-4.34-10.78-7.06-16.92-7.58-16.81-1.65-31.46,13.81-34.52,32.15-5.4,27.36,15.05,55.74,38.96,49.29,5.77-1.49,11.09-4.89,15.42-9.77,2.15-2.52,4.61-5.46,4.95-9.09,0-.03,0-.06,0-.08.2-3.64-3.81-5.42-5.98-2.74Z"/>
  <g>
    <path class="cls-4" d="M258.47,72.75v20.74c-5.45,3.1-12.18,4.92-19.45,4.92s-13.99-1.82-19.45-4.92v-20.74c0,8.34,8.71,15.1,19.45,15.1s19.45-6.76,19.45-15.1Z"/>
    <path class="cls-4" d="M272.09,72.75c0,8.54-5.36,16.09-13.62,20.74v-20.74c0,8.34-8.71,15.1-19.45,15.1s-19.45-6.76-19.45-15.1v20.74c-6.99-3.93-11.9-9.95-13.25-16.87-.25-1.26-.38-2.56-.38-3.87s.13-2.61.38-3.87c.82-4.22,2.98-8.12,6.13-11.4,2-2.1,4.4-3.95,7.12-5.47,1.01-.58,2.05-1.1,3.15-1.57,4.81-2.13,10.37-3.34,16.31-3.34s11.49,1.21,16.31,3.34c1.09.47,2.14,1,3.15,1.57,2.71,1.53,5.11,3.37,7.11,5.47,4.09,4.26,6.5,9.55,6.5,15.27Z"/>
    <path class="cls-4" d="M258.47,72.75c0,8.34-8.71,15.1-19.45,15.1s-19.45-6.76-19.45-15.1c0-3.04,1.16-5.86,3.15-8.23,3.46-4.13,9.48-6.87,16.31-6.87s12.84,2.74,16.31,6.87c1.99,2.37,3.15,5.19,3.15,8.23Z"/>
    <path class="cls-1" d="M239.02,16.54c-18.27,0-33.07,11.49-33.07,25.66s14.81,25.66,33.07,25.66,33.07-11.49,33.07-25.66-14.81-25.66-33.07-25.66ZM239.02,57.3c-10.74,0-19.45-6.76-19.45-15.1s8.71-15.1,19.45-15.1,19.45,6.76,19.45,15.1-8.71,15.1-19.45,15.1Z"/>
    <path class="cls-1" d="M272.09,42.73v51.31c0,2.42-1.62,4.38-3.61,4.38h-6.39c-2,0-3.61-1.96-3.61-4.38v-51.31c0-2.42,1.62-4.38,3.61-4.38h6.39c2,0,3.61,1.96,3.61,4.38Z"/>
    <path class="cls-1" d="M219.19,44.09v49.63c0,2.88-1.93,5.22-4.31,5.22h-4.63c-2.38,0-4.31-2.34-4.31-5.22v-49.63c0-2.88,1.93-5.22,4.31-5.22h4.63c2.38,0,4.31,2.34,4.31,5.22Z"/>
  </g>
  <path class="cls-3" d="M410.41,21.82v71.82c0,2.92-1.73,5.29-3.86,5.29h-5.1c-2.13,0-3.86-2.37-3.86-5.29v-29.92c0-2.32-.34-4.55-.96-6.63-.79-2.64-2.94-3.98-4.9-3.01-3.81,1.89-8.03,2.94-12.45,2.94s-8.64-1.05-12.45-2.94c-1.96-.97-4.11.37-4.9,3.01-.62,2.08-.96,4.31-.96,6.64v29.92c0,2.92-1.73,5.29-3.86,5.29h-4.75c-2.13,0-3.86-2.37-3.86-5.29V21.82c0-2.92,1.73-5.29,3.86-5.29h4.75c2.13,0,3.86,2.37,3.86,5.29h0c0,4.18,1.09,8.05,2.96,11.3,3.27,5.67,8.92,9.41,15.35,9.41s12.09-3.75,15.35-9.42c1.87-3.25,2.96-7.12,2.96-11.28h0c0-2.92,1.73-5.29,3.86-5.29h5.1c2.1,0,3.85,2.29,3.86,5.17,0,.04,0,.08,0,.12Z"/>
  <path class="cls-2" d="M298.46,62.22c1.53.25,3.07.27,4.6.07,3.05-.41,8.4-1,10.51-.43,3.82,1.04,7.06,3.02,9.24,5.58,1.87,2.2,2.95,4.82,2.95,7.64,0,7.75-8.19,14.03-18.3,14.03-7.85,0-14.54-3.78-17.14-9.09-1.27-2.58-3.96-3.59-6.28-2.48l-.96.46c-3.12,1.5-4.27,6.18-2.21,9.35,4.76,7.31,14.44,11.58,26.59,11.58,15.6,0,28.52-8.79,30.77-20.27,0,0,0-.02,0-.02v-5.64c0-1.23-.18-2.45-.55-3.61-1-3.12-2.8-6-5.22-8.49-1.88-1.95-4.14-3.67-6.7-5.09-.94-.53-1.93-1.02-2.95-1.46-.56-.25-1.15-.52-1.76-.82-4.08-2-9.32-1.71-14.28-.94-4.6.72-9.34-.72-12.64-4.17-.19-.2-.38-.41-.56-.62-1.87-2.2-2.95-4.82-2.95-7.64,0-7.75,8.19-14.03,18.3-14.03,7.85,0,14.54,3.78,17.14,9.09,1.27,2.58,3.96,3.59,6.28,2.48l.96-.46c3.12-1.5,4.27-6.18,2.21-9.35-4.76-7.31-14.44-11.58-26.59-11.58-15.6,0-28.52,8.79-30.77,20.27,0,0,0,.02,0,.02v5.64c0,1.23.18,2.45.55,3.61,1,3.12,2.8,6,5.22,8.49,1.88,1.95,4.14,3.67,6.7,5.09.94.53,1.93,1.02,2.95,1.45h.02c1.29.57,2.65.97,4.03,1.2l.84.14Z"/>
</svg>